<?xml version="1.0" encoding="utf-8"?>
<svg viewBox="0 0 253.15 255.91" xmlns="http://www.w3.org/2000/svg">
    <defs>
        <style>.cls-1{fill:#202020;}.cls-2{fill:#333b45;opacity:0.4;}</style>
    </defs>
    <path class="cls-2" d="M33.13,72.51c-.34,2.07-.85,5.13-1.45,8.84-.7,4.34-1.05,6.51-1.27,7.93-.72,4.76-1.4,9.34-1.9,15-.08.94-.38,4.44-.47,7.29-.12,3.63-.41,12.86,2.85,22.18a47.58,47.58,0,0,0,15.84,21.86c9.57,7.14,18.54,10.66,23.77,11.89a97.26,97.26,0,0,0,22.42,2.85c4.54-.19,7.81-.81,14.22-2,6.71-1.27,7.07-1.8,7.06-2,0-.85-5.49-.8-11.5-2a58,58,0,0,1-17.29-6.74c-12.17-6.6-23.24-17-29.41-29.5-8.23-16.72-6.83-35.27-2.93-52.88-2.08-1.33-5-1.66-7.33-2-2.72-.41-7.36-1.61-10-.83C34.92,72.61,34,72.08,33.13,72.51Z"/>
    <path class="cls-2" d="M 66.7 227.66 C 65.888 228.614 64.961 229.464 63.94 230.19 C 61.47 231.93 61.299 229.297 61.289 227.897 C 61.165 226.063 61.945 223.565 62.07 221.73 C 63.07 214.27 66.07 203.31 74.51 194.01 C 82.69 185.01 92.51 181.47 102.87 177.69 C 109.796 175.164 116.964 173.358 124.26 172.3 L 126.596 172.147 C 116.056 178.337 106.69 183.3 96.21 189.59 C 89.59 193.59 83.21 198.22 78.86 204.74 C 75.97 209.1 74.11 214.01 71.86 218.74 C 70.38 221.84 68.94 225.06 66.7 227.66 Z"/>
    <path class="cls-1" d="M 231.33 92.38 L 231.11 90.62 C 230.27 83.74 229.11 76.23 227.66 67.62 L 227.13 64.62 L 224.13 64.09 C 219.75 63.32 167.67 65.48 160.71 83.39 L 168.83 86.55 C 172 78.38 207.09 70.46 219.61 72.19 C 220.81 79.35 221.75 85.74 222.48 91.64 L 222.69 93.41 C 224.31 106.49 226.32 122.77 221.33 134.82 C 218.926 140.612 215.464 145.906 211.12 150.43 C 196.12 166.17 170.23 173.01 146.37 168.05 L 142.62 167.12 L 141 166.72 C 140.72 166.64 140.44 166.57 140.16 166.48 L 138.53 166.03 C 136.063 165.451 133.669 164.599 131.39 163.49 L 145.63 151.49 C 176.936 120.176 176.936 69.414 145.63 38.1 L 126.49 18.69 L 126.25 18.93 L 107.11 38.45 C 75.788 69.757 75.788 120.533 107.11 151.84 L 121.35 163.84 C 119.068 164.949 116.67 165.801 114.2 166.38 L 112.57 166.83 L 111.73 167.07 L 110.11 167.47 L 106.37 168.4 C 82.5 173.4 56.62 166.52 41.61 150.78 C 37.272 146.256 33.81 140.966 31.4 135.18 C 26.4 123.12 28.4 106.84 30.04 93.76 L 30.26 92 C 30.98 86.1 31.93 79.71 33.13 72.56 C 45.64 70.82 81.02 82.56 84.19 90.74 L 92.31 87.59 C 85.35 69.63 33 63.63 28.61 64.4 L 25.61 64.93 L 25.09 67.93 C 23.59 76.5 22.46 84 21.62 90.89 L 21.4 92.65 C 19.67 106.75 17.5 124.28 23.4 138.46 C 26.231 145.245 30.301 151.444 35.4 156.74 C 46.96 168.87 63.54 176.31 81.32 178.23 C 63.76 189.3 53.26 207.44 53.26 228.66 C 53.263 230.998 53.39 233.335 53.64 235.66 L 54 240 L 58.33 239.55 C 80.11 237.25 113 224.21 126.33 204.69 L 126.53 204.96 L 126.53 204.48 C 139.85 223.96 172.69 236.98 194.45 239.27 L 198.77 239.73 L 199.23 235.4 C 199.478 233.075 199.601 230.738 199.6 228.4 C 199.6 207.17 189.11 189.03 171.54 177.97 C 189.33 176.05 205.91 168.61 217.46 156.48 C 222.56 151.184 226.629 144.985 229.46 138.2 C 235.23 124 233.07 106.47 231.33 92.38 Z M 113.13 145.55 C 85.313 117.604 85.384 72.408 113.29 44.55 L 126.35 31.24 L 126.49 31.37 L 126.49 31.08 L 139.49 44.28 C 167.396 72.138 167.467 117.334 139.65 145.28 L 126.4 156.36 L 126.25 156.24 L 126.25 156.56 L 113.13 145.55 Z M 190.86 228.39 C 190.86 228.92 190.86 229.46 190.86 229.99 C 168.65 226.27 137.26 211.79 130.55 193.6 L 126.47 182.52 L 126.34 182.89 L 126.34 182.8 L 122.25 193.87 C 115.54 212.06 84.16 226.55 61.95 230.26 C 61.95 229.73 61.95 229.2 61.95 228.66 C 61.95 203.1 79.01 183.42 106.5 177.3 L 108.11 176.91 C 110.07 176.503 112.02 176.02 113.96 175.46 C 118.28 174.4 124.437 172.617 126.537 172.177 L 126.577 172.127 L 126.56 172.18 C 128.75 172.69 134.66 174.18 138.92 175.18 C 140.86 175.73 142.8 176.18 144.76 176.63 L 146.38 177.02 C 173.79 183.14 190.86 202.82 190.86 228.39 Z"/>
</svg>
